<?xml version="1.0" encoding="utf-8"?>
<!-- Generator: Adobe Illustrator 24.0.0, SVG Export Plug-In . SVG Version: 6.00 Build 0)  -->
<svg version="1.1" id="Warstwa_1" xmlns="http://www.w3.org/2000/svg" xmlns:xlink="http://www.w3.org/1999/xlink" x="0px" y="0px"
	 viewBox="0 0 58.3 50" style="enable-background:new 0 0 58.3 50;" xml:space="preserve">
<style type="text/css">
	.st0{fill:#E6175C;}
	.st1{fill:#0F5499;}
</style>
<g id="Group_415" transform="translate(-181.339 -103)">
	<path class="st0" d="M213.7,131.7c-0.5,0-1.1-0.2-1.5-0.7c-0.3-0.4-0.5-0.8-0.5-1.3v-3.6h-0.9c-2.1,0-3.9-1.8-3.9-3.9v-15.3
		c0-2.1,1.7-3.9,3.9-3.9h25c2.1,0,3.9,1.7,3.9,3.9v15.4c0,2.1-1.7,3.8-3.8,3.8h-15.2l-5.7,5C214.6,131.5,214.2,131.7,213.7,131.7z
		 M210.8,105c-1,0-1.9,0.8-1.9,1.9v15.3c0,1,0.9,1.9,1.9,1.9h2.9v5.6l6.2-5.6h15.9c1,0,1.8-0.8,1.8-1.8v-15.4c0-1-0.8-1.9-1.9-1.9
		H210.8z"/>
	<path class="st1" d="M215,153c-6.2,0-15.5-3.6-24.3-13.9c-9-11.3-10.4-21.8-8.7-27.8l0.1-0.5l0.5-0.2c3.8-1.4,8-1.7,12-1l0.5,0.1
		l0.2,0.4c2.3,4,3.3,8.5,2.8,13.1l0,0.4l-0.3,0.3c-1.4,1.1-2.8,2-4.4,2.8c0.5,1.7,2,3.9,4.2,6.7c2.3,2.7,4.2,4.6,5.7,5.4
		c1.1-1.4,2.3-2.7,3.6-3.8l0.3-0.3l0.4,0c4.6,0.4,8.8,2.2,12.3,5.3l0.3,0.3l0,0.5c-0.1,4.1-1.2,8.1-3.3,11.6l-0.3,0.4l-0.5,0
		C215.8,153,215.4,153,215,153z M183.8,112.4c-1.3,5.6,0.2,15,8.5,25.4c8.6,10.1,17.6,13.4,23.3,13.2c1.7-3,2.6-6.3,2.7-9.7
		c-3-2.5-6.6-4-10.4-4.4c-1.3,1.1-2.5,2.4-3.5,3.8l-0.5,0.6l-0.7-0.3c-2-0.8-4.4-2.9-7.2-6.3c-2.8-3.5-4.4-6.2-4.8-8.3l-0.1-0.8
		l0.7-0.3c1.6-0.7,3-1.6,4.4-2.7c0.3-3.9-0.5-7.7-2.4-11.1C190.5,111,187,111.3,183.8,112.4z"/>
	<rect x="218.5" y="113.6" class="st0" width="1.9" height="2"/>
	<rect x="222.3" y="113.6" class="st0" width="1.9" height="2"/>
	<rect x="226.2" y="113.6" class="st0" width="1.9" height="2"/>
</g>
</svg>
